<svg xmlns="http://www.w3.org/2000/svg" version="1.1" width="1024" height="1024" viewBox="0 0 1024 1024">
<g id="icomoon-ignore">
</g>
<path fill="#ffffff" d="M721.6 119.52c-18.88 33.44-36.96 67.52-56 100.8-9.76 17.44-21.44 33.6-31.52 50.72-7.36 12.64-8.64 26.080 1.6 37.92 9.6 11.2 19.36 21.44 29.76 31.040h0.16c19.36 17.6 39.68 34.24 59.36 51.84 12.48 11.040 16.16 24.64 8 39.68-12.32 22.88-24.8 45.76-38.88 67.68-14.88 23.040-31.52 45.28-48.16 67.2-20.8 26.56-43.36 49.92-68.32 70.72l-0.8 0.64c-26.4 23.040-55.84 44.16-87.040 62.4l-2.72 1.44c-19.040 11.040-37.92 21.92-57.44 32-10.72 5.44-22.24 5.6-31.52-3.68-11.68-11.52-23.2-23.36-34.24-35.52-16-17.44-30.72-36.16-47.52-52.96s-25.28-19.36-48.32-5.76c-9.6 5.76-18.4 12.48-28 18.080-39.84 22.72-80.32 44.96-120 67.68-12.96 7.36-27.36 13.6-34.080 28.64v19.040c3.36 15.52 6.88 30.72 9.76 46.24 6.4 35.52 29.44 58.24 58.080 76.64 23.040 14.72 47.040 28.16 73.6 35.52 13.28 3.68 26.88 5.92 40.32 8.64 1.92 0.48 3.84 0.96 5.76 1.44h36.8c12.48-2.4 25.44-4 37.76-7.52 23.84-7.2 47.84-14.4 70.88-23.040 29.76-11.040 59.2-22.56 88.16-35.52 34.24-15.2 65.12-36.32 95.36-58.24 42.24-31.52 79.52-64.16 114.24-99.68h0.16c22.4-22.88 43.36-47.040 64.48-70.72 22.24-25.6 43.2-53.76 61.76-83.52l1.6-2.88c16.64-25.76 31.68-55.52 43.2-86.72l0.96-3.2c13.92-39.040 27.68-78.24 40.64-117.28 3.040-10.56 5.76-23.52 7.52-36.8v-1.76c0.16 0 0.16-36.64 0.16-36.64-1.92-10.24-3.68-20.48-5.92-30.4-7.2-30.88-19.2-58.080-35.68-82.080l0.48 0.8c-10.56-15.36-20.8-28.8-31.68-41.44l0.64 0.64c-11.36-13.6-27.52-19.52-44.16-23.52-16.64-4.16-33.12-7.2-49.76-10.72-0.96-0.32-1.76-0.64-2.56-0.96v0s-19.040 0-19.040 0c-3.68 1.76-6.72 3.84-9.44 6.24v0c-6.56 7.84-12.64 16.64-18.24 25.92l-0.64 0.96z"/>
</svg>